<svg width="59" height="59" viewBox="0 0 59 59" fill="none" xmlns="http://www.w3.org/2000/svg">
<g id="colorfilter">
<path id="Vector" opacity="0.6" d="M34.4167 39.3334C34.4167 43.6846 32.5238 47.6179 29.5 50.2975C26.8942 52.6575 23.4525 54.0834 19.6667 54.0834C11.5296 54.0834 4.91667 47.4704 4.91667 39.3334C4.91667 32.5484 9.53834 26.7959 15.7825 25.0996C17.4788 29.3771 21.1171 32.6713 25.6158 33.9004C26.845 34.2446 28.1479 34.4167 29.5 34.4167C30.8521 34.4167 32.155 34.2446 33.3842 33.9004C34.0479 35.5721 34.4167 37.4159 34.4167 39.3334Z" fill="#1E638A"/>
<path id="Vector_2" d="M44.25 19.6666C44.25 21.5841 43.8812 23.4279 43.2175 25.0995C41.5212 29.377 37.8829 32.6712 33.3842 33.9004C32.155 34.2445 30.8521 34.4166 29.5 34.4166C28.1479 34.4166 26.845 34.2445 25.6158 33.9004C21.1171 32.6712 17.4788 29.377 15.7825 25.0995C15.1188 23.4279 14.75 21.5841 14.75 19.6666C14.75 11.5295 21.3629 4.91663 29.5 4.91663C37.6371 4.91663 44.25 11.5295 44.25 19.6666Z" fill="#1E638A"/>
<path id="Vector_3" opacity="0.4" d="M54.0833 39.3334C54.0833 47.4704 47.4704 54.0834 39.3333 54.0834C35.5475 54.0834 32.1058 52.6575 29.5 50.2975C32.5237 47.6179 34.4167 43.6846 34.4167 39.3334C34.4167 37.4159 34.0479 35.5721 33.3842 33.9004C37.8829 32.6713 41.5212 29.3771 43.2175 25.0996C49.4617 26.7959 54.0833 32.5484 54.0833 39.3334Z" fill="#1E638A"/>
</g>
</svg>
